<svg xmlns="http://www.w3.org/2000/svg" viewBox="0 0 304 304" width="304" height="304">
  <path fill="none" stroke="#3498db" stroke-width="2" d="M44,174 L60,174 L60,190 L44,190 L44,174 Z"></path>
  <path fill="none" stroke="#3498db" stroke-width="2" d="M60,174 L68,174 L68,182 L60,182 L60,174 Z"></path>
  <path fill="none" stroke="#3498db" stroke-width="2" d="M68,174 L76,174 L76,182 L68,182 L68,174 Z"></path>
  <path fill="none" stroke="#3498db" stroke-width="2" d="M76,174 L84,174 L84,182 L76,182 L76,174 Z"></path>
  <path fill="none" stroke="#3498db" stroke-width="2" d="M84,174 L92,174 L92,182 L84,182 L84,174 Z"></path>
  <path fill="none" stroke="#3498db" stroke-width="2" d="M92,174 L100,174 L100,182 L92,182 L92,174 Z"></path>
  <path fill="none" stroke="#3498db" stroke-width="2" d="M100,174 L108,174 L108,182 L100,182 L100,174 Z"></path>
  <path fill="none" stroke="#3498db" stroke-width="2" d="M108,174 L116,174 L116,182 L108,182 L108,174 Z"></path>
  <path fill="none" stroke="#3498db" stroke-width="2" d="M116,174 L124,174 L124,182 L116,182 L116,174 Z"></path>
  <path fill="none" stroke="#3498db" stroke-width="2" d="M124,174 L132,174 L132,182 L124,182 L124,174 Z"></path>
  <path fill="none" stroke="#3498db" stroke-width="2" d="M132,174 L140,174 L140,182 L132,182 L132,174 Z"></path>
  <path fill="none" stroke="#3498db" stroke-width="2" d="M140,174 L148,174 L148,182 L140,182 L140,174 Z"></path>
  <path fill="none" stroke="#3498db" stroke-width="2" d="M148,174 L156,174 L156,182 L148,182 L148,174 Z"></path>
  <path fill="none" stroke="#3498db" stroke-width="2" d="M156,174 L164,174 L164,182 L156,182 L156,174 Z"></path>
  <path fill="none" stroke="#3498db" stroke-width="2" d="M164,174 L172,174 L172,182 L164,182 L164,174 Z"></path>
  <path fill="none" stroke="#3498db" stroke-width="2" d="M172,174 L180,174 L180,182 L172,182 L172,174 Z"></path>
  <path fill="none" stroke="#3498db" stroke-width="2" d="M180,174 L188,174 L188,182 L180,182 L180,174 Z"></path>
  <path fill="none" stroke="#3498db" stroke-width="2" d="M188,174 L196,174 L196,182 L188,182 L188,174 Z"></path>
  <path fill="none" stroke="#3498db" stroke-width="2" d="M196,174 L204,174 L204,182 L196,182 L196,174 Z"></path>
  <path fill="none" stroke="#3498db" stroke-width="2" d="M204,174 L212,174 L212,182 L204,182 L204,174 Z"></path>
  <path fill="none" stroke="#3498db" stroke-width="2" d="M212,174 L220,174 L220,182 L212,182 L212,174 Z"></path>
  <path fill="none" stroke="#3498db" stroke-width="2" d="M220,174 L228,174 L228,182 L220,182 L220,174 Z"></path>
  <path fill="none" stroke="#3498db" stroke-width="2" d="M228,174 L236,174 L236,182 L228,182 L228,174 Z"></path>
  <path fill="none" stroke="#3498db" stroke-width="2" d="M236,174 L244,174 L244,182 L236,182 L236,174 Z"></path>
  <path fill="none" stroke="#3498db" stroke-width="2" d="M244,174 L252,174 L252,182 L244,182 L244,174 Z"></path>
  <path fill="none" stroke="#3498db" stroke-width="2" d="M252,174 L260,174 L260,182 L252,182 L252,174 Z"></path>
</svg>