<!DOCTYPE svg PUBLIC "-//W3C//DTD SVG 1.1//EN" "http://www.w3.org/Graphics/SVG/1.1/DTD/svg11.dtd">
<!-- Uploaded to: SVG Repo, www.svgrepo.com, Transformed by: SVG Repo Mixer Tools -->
<svg version="1.1" id="Layer_1" xmlns="http://www.w3.org/2000/svg" xmlns:xlink="http://www.w3.org/1999/xlink" viewBox="0 0 511.999 511.999" xml:space="preserve" width="800px" height="800px" fill="#ffffff">
<g id="SVGRepo_bgCarrier" stroke-width="0"/>
<g id="SVGRepo_tracerCarrier" stroke-linecap="round" stroke-linejoin="round"/>
<g id="SVGRepo_iconCarrier"> <rect x="98.456" y="178.77" style="fill:#ffffff;" width="413.542" height="253.416"/> <rect x="49.221" y="129.535" style="fill:#375376;" width="413.542" height="253.416"/> <rect y="79.812" style="fill:#5895e9;" width="413.542" height="253.416"/> <circle style="fill:#ffffff;" cx="116.042" cy="175.888" r="27.848"/> <path style="fill:#FFFFFF;" d="M116.045,222.505c-26.613,0-49.007,18.009-55.696,42.502h111.392 C165.052,240.514,142.658,222.505,116.045,222.505z"/> <g> <path style="fill:#ffffff;" d="M291.167,168.931h-59.078c-7.69,0-13.924-6.235-13.924-13.924s6.234-13.924,13.924-13.924h59.078 c7.69,0,13.924,6.235,13.924,13.924S298.857,168.931,291.167,168.931z"/> <path style="fill:#ffffff;" d="M350.245,220.45H232.09c-7.69,0-13.924-6.235-13.924-13.924s6.234-13.924,13.924-13.924h118.155 c7.69,0,13.924,6.235,13.924,13.924S357.935,220.45,350.245,220.45z"/> <path style="fill:#ffffff;" d="M350.245,271.969H232.09c-7.69,0-13.924-6.235-13.924-13.924c0-7.689,6.234-13.924,13.924-13.924 h118.155c7.69,0,13.924,6.235,13.924,13.924C364.169,265.734,357.935,271.969,350.245,271.969z"/> </g> </g>
</svg>